PathFileType	4	(X/Y/Z)	E:\MaartenAfschrift\ProcessCardiffData\Gait_Perturbation\osimData\Patient20\Static.trc
DataRate	CameraRate	NumFrames	NumMarkers	Units	OrigDataRate	OrigDataStartFrame	OrigNumFrames
200.000000	200.000000	8	54	m	200.000000	115	916
Frame#	Times	LFHD			RFHD			LBHD			RBHD			C7			CLAV			LSHO			LUA1			LELB			LLA1			LWRA			LWRB			LFIN			RSHO			RUA1			RELB			RLA1			RWRA			RWRB			RFIN			LASI			RASI			RPSI			LPSI			LTHI			LTHI2			LTHI3			LKNE			LKNEmed			LTIB			LTIB2			LTIB3			LANKmed			LHEE			LTOE			LLatFoot			RTHI			RTHI2			RTHI3			RKNE			RKNEmed			RTIB			RTIB2			RTIB3			RANK			RANKmed			RHEE			RTOE			RLatFoot			Unlabeled50			Unlabeled51			Unlabeled52			*52			*53
		X1	Y1	Z1	X2	Y2	Z2	X3	Y3	Z3	X4	Y4	Z4	X5	Y5	Z5	X6	Y6	Z6	X7	Y7	Z7	X8	Y8	Z8	X9	Y9	Z9	X10	Y10	Z10	X11	Y11	Z11	X12	Y12	Z12	X13	Y13	Z13	X14	Y14	Z14	X15	Y15	Z15	X16	Y16	Z16	X17	Y17	Z17	X18	Y18	Z18	X19	Y19	Z19	X20	Y20	Z20	X21	Y21	Z21	X22	Y22	Z22	X23	Y23	Z23	X24	Y24	Z24	X25	Y25	Z25	X26	Y26	Z26	X27	Y27	Z27	X28	Y28	Z28	X29	Y29	Z29	X30	Y30	Z30	X31	Y31	Z31	X32	Y32	Z32	X33	Y33	Z33	X34	Y34	Z34	X35	Y35	Z35	X36	Y36	Z36	X37	Y37	Z37	X38	Y38	Z38	X39	Y39	Z39	X40	Y40	Z40	X41	Y41	Z41	X42	Y42	Z42	X43	Y43	Z43	X44	Y44	Z44	X45	Y45	Z45	X46	Y46	Z46	X47	Y47	Z47	X48	Y48	Z48	X49	Y49	Z49	X50	Y50	Z50	X51	Y51	Z51	X52	Y52	Z52	X53	Y53	Z53	X54	Y54	Z54

115	0.575	0.12783	1.596	-0.052438	0.12294	1.5966	0.10059	-0.045673	1.5851	-0.033749	-0.033139	1.5811	0.093047	-0.038643	1.4103	0.019353	0.090335	1.3553	0.016788	0.046493	1.3673	-0.16336	0.016788	1.2119	-0.21743	0.049116	1.0833	-0.2273	0.10369	0.9828	-0.22291	0.15006	0.8757	-0.15713	0.11907	0.86001	-0.22091	0.17111	0.8207	-0.19493	-0.00095995	1.3634	0.20153	0.00050159	1.2056	0.25128	0.017311	1.0614	0.25902	0.089495	0.95988	0.26266	0.15242	0.864	0.19737	0.10023	0.84083	0.24199	0.17141	0.80853	0.23563	0.14901	0.93699	-0.099466	0.14445	0.93242	0.11024	-0.048611	0.96845	0.043497	-0.047079	0.97146	-0.028859	0.067885	0.65197	-0.16865	0.011499	0.65973	-0.17843	0.039291	0.61609	-0.169	0.030241	0.481	-0.14873	-0.0013423	0.4723	-0.024085	0.045413	0.40665	-0.14179	-0.025866	0.41429	-0.17134	0.010151	0.37064	-0.1728	-0.023466	0.11143	-0.064333	-0.10077	0.061376	-0.10723	0.08436	0.068046	-0.06742	0.029037	0.038992	-0.15779	0.092378	0.65097	0.17037	0.030988	0.65671	0.18967	0.05412	0.60697	0.17555	0.022008	0.47247	0.15912	0.020535	0.46859	0.029229	0.023264	0.31356	0.17577	-0.030811	0.31812	0.18259	-0.010245	0.26771	0.17734	-0.013627	0.10276	0.14174	-0.0038833	0.11657	0.063616	-0.088089	0.060319	0.092672	0.097704	0.062977	0.067425	0.04002	0.044323	0.15639	0.30655	0.044549	-0.54778	-0.31937	0.037274	-0.53446	-0.27349	0.038095	0.53878	0.23464	0.046691	0.53857	0	0	0
116	0.58	0.12786	1.596	-0.052402	0.12296	1.5967	0.10065	-0.045603	1.5851	-0.033725	-0.033141	1.5811	0.093071	-0.038612	1.4103	0.019307	0.090355	1.3553	0.016779	0.046548	1.3673	-0.16336	0.016833	1.2119	-0.21744	0.049167	1.0832	-0.22732	0.10376	0.98281	-0.22296	0.15009	0.87568	-0.15718	0.11909	0.86001	-0.22093	0.17114	0.82068	-0.19498	-0.00094061	1.3634	0.20152	0.00052457	1.2055	0.25125	0.017373	1.0614	0.25898	0.08951	0.95986	0.26265	0.15243	0.86395	0.19736	0.10025	0.84082	0.24198	0.17142	0.8085	0.2356	0.14902	0.93696	-0.099469	0.14444	0.93242	0.11024	-0.048574	0.96843	0.043447	-0.04705	0.97144	-0.028882	0.067897	0.65195	-0.16866	0.011498	0.65974	-0.17845	0.039276	0.61608	-0.16901	0.030284	0.48098	-0.14875	-0.0012811	0.4723	-0.024117	0.045411	0.40663	-0.14179	-0.025877	0.41427	-0.17135	0.010212	0.37062	-0.17263	-0.023451	0.11143	-0.064279	-0.10077	0.061382	-0.10725	0.084368	0.068037	-0.067423	0.028995	0.03894	-0.15775	0.0924	0.65096	0.17035	0.030994	0.65669	0.18967	0.054163	0.60697	0.17555	0.021721	0.47239	0.15909	0.020522	0.46859	0.029188	0.023298	0.31355	0.17577	-0.03072	0.31808	0.18256	-0.010258	0.26773	0.17736	-0.013673	0.10278	0.14174	-0.0038804	0.1166	0.063578	-0.088036	0.06036	0.092642	0.097695	0.062976	0.067405	0.039966	0.044314	0.15638	0.30647	0.044436	-0.5478	-0.31942	0.037217	-0.53441	-0.27351	0.038083	0.5388	0.23439	0.046463	0.53861	0	0	0
117	0.585	0.12791	1.596	-0.052366	0.12295	1.5966	0.10066	-0.045602	1.5851	-0.033735	-0.033122	1.5811	0.093088	-0.03856	1.4103	0.019314	0.090398	1.3553	0.016793	0.046595	1.3673	-0.16336	0.016846	1.2118	-0.21745	0.049202	1.0832	-0.22731	0.10376	0.9828	-0.22297	0.15014	0.87566	-0.15718	0.11907	0.86	-0.22094	0.17117	0.82065	-0.195	-0.00092493	1.3633	0.20149	0.00055701	1.2055	0.25123	0.017383	1.0614	0.25895	0.08955	0.95986	0.26264	0.15244	0.86394	0.19734	0.10025	0.84079	0.24198	0.17143	0.80846	0.2356	0.14907	0.93694	-0.099461	0.14445	0.93242	0.11023	-0.048573	0.96844	0.043447	-0.047045	0.97145	-0.028891	0.067897	0.65195	-0.16866	0.011576	0.65976	-0.17843	0.039295	0.61607	-0.169	0.030252	0.48099	-0.14872	-0.0013532	0.47229	-0.024071	0.045422	0.40663	-0.1418	-0.02578	0.41426	-0.17127	0.010125	0.37061	-0.17286	-0.023455	0.11142	-0.064322	-0.10074	0.061368	-0.10726	0.084383	0.06804	-0.067409	0.029012	0.038942	-0.15776	0.092439	0.65096	0.17035	0.031225	0.65643	0.18944	0.054188	0.60698	0.17555	0.022028	0.47248	0.15911	0.02051	0.46858	0.02918	0.023278	0.31354	0.17575	-0.030797	0.31808	0.18252	-0.010236	0.26772	0.17734	-0.013736	0.10276	0.14179	-0.0038461	0.11657	0.063597	-0.088065	0.060342	0.092651	0.097677	0.06297	0.067373	0.039954	0.044317	0.15639	0.30643	0.044246	-0.54788	-0.31946	0.037292	-0.53439	-0.27343	0.038098	0.53874	0.23443	0.046368	0.53854	0	0	0
118	0.59	0.12795	1.5961	-0.052335	0.12299	1.5966	0.10071	-0.045559	1.5851	-0.033749	-0.033137	1.581	0.09304	-0.038535	1.4103	0.019289	0.090446	1.3553	0.016789	0.046627	1.3672	-0.16335	0.016899	1.2118	-0.21744	0.049263	1.0832	-0.22733	0.10382	0.98279	-0.22299	0.15015	0.87565	-0.15721	0.11915	0.85997	-0.22099	0.17121	0.82065	-0.19505	-0.00090037	1.3633	0.2015	0.0005846	1.2055	0.25121	0.017378	1.0613	0.25893	0.089561	0.95981	0.2626	0.15248	0.86393	0.19732	0.1003	0.84076	0.24194	0.17146	0.80844	0.23557	0.14912	0.93696	-0.099488	0.14448	0.93241	0.11023	-0.048541	0.96844	0.043447	-0.04699	0.97145	-0.028905	0.067918	0.65194	-0.16867	0.01162	0.65979	-0.17842	0.039347	0.61608	-0.16904	0.030258	0.48098	-0.14875	-0.0013102	0.47228	-0.024105	0.04545	0.40662	-0.1418	-0.025817	0.41429	-0.17135	0.010197	0.37065	-0.17286	-0.02347	0.11142	-0.064345	-0.10076	0.061378	-0.10723	0.084377	0.068049	-0.067423	0.029021	0.038966	-0.15777	0.092442	0.65096	0.17035	0.031201	0.65649	0.18941	0.054193	0.60698	0.17554	0.022017	0.47251	0.15906	0.02052	0.46858	0.029171	0.023274	0.31356	0.17575	-0.030723	0.31813	0.18257	-0.010233	0.26773	0.17736	-0.01385	0.10273	0.14178	-0.0038634	0.11657	0.063571	-0.088072	0.060362	0.092651	0.097691	0.062974	0.067401	0.04002	0.044314	0.15633	0.30659	0.044534	-0.54782	-0.31936	0.037265	-0.53435	-0.27348	0.038097	0.53876	0.23465	0.046703	0.53853	0	0	0
119	0.595	0.12797	1.5961	-0.052302	0.12297	1.5966	0.10073	-0.045506	1.5851	-0.033749	-0.033097	1.581	0.093042	-0.038478	1.4103	0.019279	0.090485	1.3553	0.016769	0.046688	1.3672	-0.16337	0.016935	1.2118	-0.21746	0.049288	1.0832	-0.22736	0.10381	0.98277	-0.22302	0.15024	0.87563	-0.15724	0.11917	0.85997	-0.22104	0.17125	0.82063	-0.19507	-0.00086113	1.3633	0.20147	0.00058148	1.2055	0.25118	0.017413	1.0613	0.2589	0.089562	0.95979	0.26257	0.1525	0.86391	0.19729	0.10032	0.84074	0.2419	0.17148	0.80841	0.23553	0.14917	0.93692	-0.099489	0.1445	0.9324	0.11023	-0.048502	0.96842	0.0434	-0.047023	0.97147	-0.028955	0.067977	0.65193	-0.16866	0.011622	0.65975	-0.17846	0.039399	0.61605	-0.16903	0.030312	0.48098	-0.14875	-0.0013521	0.4723	-0.024085	0.04547	0.40662	-0.14182	-0.025795	0.41428	-0.17135	0.010165	0.37062	-0.17285	-0.023463	0.11142	-0.064352	-0.10078	0.061382	-0.10723	0.084388	0.06803	-0.067431	0.028983	0.038933	-0.15779	0.092488	0.65095	0.17033	0.031231	0.65648	0.18943	0.054228	0.60698	0.17554	0.022044	0.47251	0.15906	0.020518	0.46856	0.029128	0.023294	0.31357	0.17574	-0.03073	0.3181	0.1825	-0.010209	0.26772	0.17735	-0.013138	0.10282	0.14149	-0.0038364	0.11659	0.063531	-0.088076	0.060356	0.092631	0.097727	0.062979	0.067412	0.039997	0.044314	0.15634	0.30658	0.044518	-0.54785	-0.31948	0.037241	-0.53439	-0.27349	0.038079	0.53875	0.23481	0.046673	0.53849	0	0	0
120	0.6	0.12805	1.5961	-0.052251	0.123	1.5966	0.10077	-0.045474	1.5851	-0.033757	-0.03307	1.581	0.093035	-0.038454	1.4103	0.01929	0.090507	1.3552	0.016754	0.046721	1.3672	-0.1634	0.016973	1.2118	-0.21746	0.049293	1.0832	-0.22737	0.10389	0.98275	-0.22305	0.15025	0.87562	-0.15727	0.11926	0.85994	-0.22105	0.1713	0.82061	-0.19512	-0.00086529	1.3632	0.20145	0.00062025	1.2054	0.25118	0.01743	1.0613	0.25886	0.089567	0.95976	0.26255	0.15251	0.86389	0.19727	0.10035	0.84069	0.24189	0.1715	0.8084	0.2355	0.14918	0.93692	-0.09949	0.14453	0.9324	0.11023	-0.048492	0.96842	0.043369	-0.046931	0.97144	-0.028982	0.068009	0.65192	-0.16866	0.011652	0.65976	-0.17848	0.039439	0.61607	-0.16904	0.030307	0.48099	-0.14877	-0.00134	0.47229	-0.024111	0.045456	0.40662	-0.14181	-0.025769	0.41426	-0.17135	0.010209	0.37065	-0.17286	-0.023456	0.11143	-0.064393	-0.10077	0.061386	-0.10726	0.084389	0.068028	-0.067412	0.028989	0.038914	-0.15778	0.092511	0.65095	0.1703	0.03109	0.65669	0.18966	0.054225	0.60697	0.17554	0.022039	0.47249	0.15906	0.020518	0.46856	0.029069	0.023359	0.31358	0.17571	-0.030734	0.31811	0.18251	-0.010281	0.2677	0.17735	-0.013341	0.10277	0.14152	-0.0039206	0.11657	0.063604	-0.088074	0.060339	0.092672	0.097723	0.062975	0.067398	0.039986	0.044318	0.15637	0.30633	0.04425	-0.54791	-0.31946	0.037256	-0.53441	-0.27348	0.038102	0.53879	0.23473	0.046719	0.53865	0	0	0
121	0.605	0.1281	1.5961	-0.052221	0.123	1.5966	0.1008	-0.045389	1.5851	-0.033774	-0.033103	1.581	0.093023	-0.038388	1.4103	0.019263	0.090554	1.3552	0.016737	0.046724	1.3672	-0.1634	0.01702	1.2118	-0.21748	0.049352	1.0832	-0.22737	0.10393	0.98272	-0.22306	0.15033	0.8756	-0.15731	0.11932	0.85992	-0.22104	0.17132	0.8206	-0.19516	-0.00085902	1.3632	0.20142	0.0006461	1.2054	0.25114	0.017456	1.0613	0.25883	0.089615	0.95973	0.26251	0.15254	0.86386	0.19725	0.10035	0.84068	0.24186	0.17152	0.80836	0.23547	0.14923	0.93692	-0.099497	0.14455	0.93238	0.11024	-0.048433	0.96843	0.043384	-0.046913	0.97143	-0.028975	0.068006	0.65192	-0.16868	0.011769	0.65971	-0.1785	0.039433	0.61609	-0.16906	0.030331	0.48099	-0.14875	-0.0013104	0.4723	-0.024113	0.045499	0.40664	-0.14181	-0.025765	0.41428	-0.17137	0.010183	0.37063	-0.17287	-0.023464	0.11142	-0.064351	-0.10073	0.061399	-0.10728	0.084439	0.068058	-0.067428	0.029027	0.038962	-0.15783	0.092537	0.65095	0.1703	0.031113	0.65668	0.18964	0.054317	0.60697	0.17551	0.021769	0.47242	0.15904	0.020501	0.46854	0.02902	0.023296	0.31356	0.17572	-0.030719	0.31811	0.18253	-0.01022	0.26772	0.17732	-0.013561	0.10281	0.14173	-0.0038545	0.11659	0.063544	-0.088089	0.06038	0.092671	0.09772	0.062975	0.067381	0.040013	0.044316	0.15635	0.3064	0.044246	-0.54786	-0.31945	0.037242	-0.53434	-0.27351	0.038111	0.53884	0.23471	0.046714	0.53859	0	0	0
122	0.61	0.12814	1.5961	-0.052183	0.12302	1.5966	0.10082	-0.045363	1.5851	-0.033801	-0.033062	1.581	0.093047	-0.038331	1.4103	0.019234	0.090602	1.3552	0.016731	0.046802	1.3671	-0.16343	0.017076	1.2118	-0.21748	0.049382	1.0832	-0.22739	0.10398	0.98273	-0.22308	0.15034	0.87558	-0.15734	0.11933	0.8599	-0.22107	0.17138	0.82058	-0.19517	-0.00079153	1.3632	0.20143	0.00065203	1.2054	0.25112	0.01745	1.0612	0.25882	0.089627	0.95972	0.26247	0.15259	0.86385	0.19723	0.10037	0.84064	0.24182	0.17155	0.80833	0.23545	0.14926	0.93691	-0.099527	0.14458	0.93238	0.11021	-0.048394	0.96841	0.043338	-0.046905	0.97145	-0.028993	0.06805	0.65191	-0.16869	0.011702	0.65975	-0.17849	0.039443	0.61608	-0.16906	0.030344	0.48099	-0.14877	-0.001304	0.47229	-0.02412	0.045501	0.40662	-0.14181	-0.025777	0.41428	-0.17141	0.010228	0.37063	-0.17288	-0.023449	0.1114	-0.064322	-0.10075	0.061389	-0.10724	0.084378	0.068031	-0.06743	0.029011	0.038937	-0.15777	0.092553	0.65099	0.17031	0.031185	0.65673	0.18963	0.054317	0.60698	0.17552	0.022061	0.47253	0.15905	0.020472	0.46852	0.028982	0.023334	0.31359	0.17573	-0.030669	0.31809	0.18244	-0.010203	0.26774	0.17732	-0.013669	0.10281	0.14172	-0.003869	0.11656	0.063571	-0.088054	0.060346	0.092621	0.097716	0.062968	0.067398	0.040025	0.044335	0.15633	0.30636	0.044253	-0.54785	-0.31938	0.037269	-0.53428	-0.27343	0.038094	0.53875	0.23471	0.04666	0.53855	0	0	0
